{"title":"The Secret in Their Eyes (2009) 720p HDRip x264-pong","uid":14161944,"size":967013184,"categoryP":"video","categoryS":"movies","magnet":"?xt=urn:btih:e12bc60776315017f7426e99f841d4fe91107ee2&amp;dn=The+Secret+in+Their+Eyes+%282009%29+720p+HDRip+x264-pong&amp;tr=udp%3A%2F%2Ftracker.leechers-paradise.org%3A6969&amp;tr=udp%3A%2F%2Fzer0day.ch%3A1337&amp;tr=udp%3A%2F%2Fopen.demonii.com%3A1337&amp;tr=udp%3A%2F%2Ftracker.coppersurfer.tk%3A6969&amp;tr=udp%3A%2F%2Fexodus.desync.com%3A6969","seeders":0,"leechers":1,"uploader":"Pongydog","files":1,"time":1459724483,"description":"http://www.imdb.com/title/tt1305806\r\n\r\nThe original Spanish version, not the Nicole Kidman re-make.\r\n\r\n\r\nA retired legal counselor writes a novel hoping to find closure for one of his past unresolved homicide cases and for his unreciprocated love with his superior - both of which still haunt him decades later. \r\n\r\nDirector: Juan José Campanella  \r\n\r\nWriters: Eduardo Sacheri,  Juan José Campanella  | 1 more credit » \r\n\r\nStars: Ricardo Darín,  Soledad Villamil,  Pablo Rago \r\n\r\n\r\n----------------------------\r\nHard English Subs\r\n----------------------------\r\n\r\nGeneral\r\nComplete name                            : C:Usersuser1VideosThe Secret in Their Eyes (2009) 720p HDRip x264-pong.mp4\r\nFormat                                   : MPEG-4\r\nFormat profile                           : Base Media\r\nCodec ID                                 : isom\r\nFile size                                : 922 MiB\r\nDuration                                 : 2h 0mn\r\nOverall bit rate                         : 1 070 Kbps\r\nEncoded date                             : UTC 2016-03-04 22:57:55\r\nTagged date                              : UTC 2016-03-04 22:57:55\r\nWriting application                      : Lavf55.23.103\r\n\r\nVideo\r\nID                                       : 1\r\nFormat                                   : AVC\r\nFormat/Info                              : Advanced Video Codec\r\nFormat profile                           :   \r\nFormat settings, CABAC                   : Yes\r\nFormat settings, ReFrames                : 5 frames\r\nCodec ID                                 : avc1\r\nCodec ID/Info                            : Advanced Video Coding\r\nDuration                                 : 2h 0mn\r\nBit rate                                 : 950 Kbps\r\nWidth                                    : 1 280 pixels\r\nHeight                                   : 540 pixels\r\nDisplay aspect ratio                     : 2.40:1\r\nFrame rate mode                          : Constant\r\nFrame rate                               : 50.000 fps\r\nColor space                              : YUV\r\nChroma subsampling                       : 4:2:0\r\nBit depth                                : 8 bits\r\nScan type                                : Progressive\r\nBits/(Pixel*Frame)                       : 0.027\r\nStream size                              : 818 MiB (89%)\r\nWriting library                          : x264 core 140 r2345\r\nEncoding settings                        : cabac=1 / ref=5 / deblock=1:0:0 / analyse=0x3:0x133 / me=umh / subme=8 / psy=1 / psy_rd=1.00:0.00 / mixed_ref=0 / me_range=16 / chroma_me=1 / trellis=1 / 8x8dct=1 / cqm=0 / deadzone=21,11 / fast_pskip=1 / chroma_qp_offset=-2 / threads=3 / lookahead_threads=1 / sliced_threads=0 / nr=0 / decimate=1 / interlaced=0 / bluray_compat=0 / constrained_intra=0 / bframes=3 / b_pyramid=0 / b_adapt=2 / b_bias=0 / direct=3 / weightb=1 / open_gop=0 / weightp=2 / keyint=500 / keyint_min=50 / scenecut=40 / intra_refresh=0 / rc_lookahead=50 / rc=2pass / mbtree=1 / bitrate=950 / ratetol=1.0 / qcomp=0.60 / qpmin=10 / qpmax=69 / qpstep=4 / cplxblur=20.0 / qblur=0.5 / vbv_maxrate=24000 / vbv_bufsize=24000 / nal_hrd=none / filler=0 / ip_ratio=1.40 / aq=1:1.00\r\nEncoded date                             : UTC 2016-03-04 22:57:55\r\nTagged date                              : UTC 2016-03-04 22:57:55\r\n\r\nAudio\r\nID                                       : 2\r\nFormat                                   : AAC\r\nFormat/Info                              : Advanced Audio Codec\r\nFormat profile                           : LC\r\nCodec ID                                 : 40\r\nDuration                                 : 2h 0mn\r\nBit rate mode                            : Constant\r\nBit rate                                 : 112 Kbps\r\nChannel(s)                               : 2 channels\r\nChannel positions                        : Front: L R\r\nSampling rate                            : 48.0 KHz\r\nCompression mode                         : Lossy\r\nStream size                              : 96.5 MiB (10%)\r\nEncoded date                             : UTC 2016-03-04 22:57:55\r\nTagged date                              : UTC 2016-03-04 22:57:55","torrent":{"xt":"urn:btih:e12bc60776315017f7426e99f841d4fe91107ee2","amp;dn":"The+Secret+in+Their+Eyes+%282009%29+720p+HDRip+x264-pong","amp;tr":["udp%3A%2F%2Ftracker.leechers-paradise.org%3A6969","udp%3A%2F%2Fzer0day.ch%3A1337","udp%3A%2F%2Fopen.demonii.com%3A1337","udp%3A%2F%2Ftracker.coppersurfer.tk%3A6969","udp%3A%2F%2Fexodus.desync.com%3A6969"],"infoHash":"e12bc60776315017f7426e99f841d4fe91107ee2","infoHashBuffer":{"type":"Buffer","data":[225,43,198,7,118,49,80,23,247,66,110,153,248,65,212,254,145,16,126,226]},"announce":[],"urlList":[]}}